<?xml version="1.0" encoding="UTF-8" standalone="no"?>
<!-- Created with Inkscape (http://www.inkscape.org/) -->

<svg
   version="1.1"
   id="svg2"
   xml:space="preserve"
   width="234.33078"
   height="109.91733"
   viewBox="0 0 234.33078 109.91733"
   sodipodi:docname="logo.svg"
   inkscape:version="1.1.2 (0a00cf5339, 2022-02-04)"
   xmlns:inkscape="http://www.inkscape.org/namespaces/inkscape"
   xmlns:sodipodi="http://sodipodi.sourceforge.net/DTD/sodipodi-0.dtd"
   xmlns="http://www.w3.org/2000/svg"
   xmlns:svg="http://www.w3.org/2000/svg"><defs
     id="defs6" /><sodipodi:namedview
     id="namedview4"
     pagecolor="#505050"
     bordercolor="#eeeeee"
     borderopacity="1"
     inkscape:pageshadow="0"
     inkscape:pageopacity="0"
     inkscape:pagecheckerboard="0"
     showgrid="false"
     fit-margin-top="0"
     fit-margin-left="0"
     fit-margin-right="0"
     fit-margin-bottom="0"
     inkscape:zoom="3.2797926"
     inkscape:cx="117.38547"
     inkscape:cy="30.337284"
     inkscape:window-width="1850"
     inkscape:window-height="1016"
     inkscape:window-x="70"
     inkscape:window-y="302"
     inkscape:window-maximized="1"
     inkscape:current-layer="g8" /><g
     id="g8"
     inkscape:groupmode="layer"
     inkscape:label="ink_ext_XXXXXX"
     transform="matrix(1.3333333,0,0,-1.3333333,-11.338546,183.46266)"><path
       d="m 10.4129,109.468 v -9.289 h 29.9844 c 2.3465,0 4.291,0.798 5.7793,2.047 1.1339,0.952 2.0093,2.164 2.6011,3.485 0.5938,1.323 0.9028,2.757 0.9028,4.149 0,1.775 -0.5075,3.464 -1.5731,4.735 l -7.2664,8.659 c -0.2961,0.353 -0.475,0.689 -0.5601,1.003 -0.1305,0.482 -0.052,0.904 0.175,1.265 l 0.0015,-0.001 c 0.1969,0.312 0.4914,0.539 0.8414,0.69 0.3946,0.172 0.8684,0.251 1.3239,0.251 h 20.9039 0.9484 v -0.949 -25.334 h 9.3957 v 25.334 0.949 h 0.9488 13.9981 V 135.7 H 38.4805 c -2.4614,0 -4.4981,-0.82 -6.0364,-2.111 -1.0875,-0.913 -1.9316,-2.062 -2.5039,-3.325 -0.5757,-1.272 -0.8777,-2.651 -0.8777,-4.015 h 0.0035 c 0,-1.925 0.5977,-3.822 1.8692,-5.337 l 6.6031,-7.87 c 0.7851,-0.935 1.1117,-1.721 0.9133,-2.395 -0.2325,-0.789 -0.9825,-1.176 -2.3164,-1.176 v -0.003 z M 8.51563,99.2301 V 111.365 H 36.1352 v -0.004 c 0.375,0 0.4648,-0.301 0.5003,-0.18 0.0016,0.005 -0.191,0.218 -0.55,0.646 l -6.6031,7.869 c -1.5742,1.876 -2.3136,4.204 -2.3136,6.553 h 0.0035 c 0,1.639 0.3578,3.285 1.0414,4.793 0.6867,1.516 1.7027,2.899 3.0148,4 1.8621,1.562 4.3113,2.555 7.252,2.555 h 51.2859 0.9488 v -0.949 -11.135 -0.949 H 89.7664 75.7684 V 99.2301 98.2813 H 74.8195 63.5266 62.5777 v 0.9488 25.3339 h -19.955 c -0.1375,0 -0.268,-0.01 -0.3801,-0.031 0.0156,-0.02 0.0324,-0.041 0.0512,-0.063 l 7.2664,-8.659 c 1.3671,-1.63 2.0175,-3.751 2.0175,-5.951 0,-1.646 -0.3672,-3.347 -1.073,-4.921 -0.707,-1.577 -1.7543,-3.026 -3.1129,-4.166 -1.8113,-1.5199 -4.166,-2.4917 -6.9945,-2.4917 H 9.46445 8.51563 v 0.9488"
       style="fill:#efea1c;fill-opacity:1;fill-rule:nonzero;stroke:none;stroke-width:0.1"
       id="path16" /><path
       d="M 60.5523,93.307 51.5758,55.8891 51.4008,55.159 h -13 L 38.2355,55.9039 34.6719,71.9793 31.1078,55.9039 30.9426,55.159 H 30.1852 18.6867 17.9426 l -0.175,0.7301 -8.98322,37.4179 -0.28047,1.1676 h 1.19922 11.11917 0.7574 l 0.1652,-0.7449 3.5196,-15.8793 3.5191,15.8793 0.1644,0.7414 h 0.7586 9.8133 0.7582 l 0.1645,-0.7414 3.5234,-15.8859 3.5184,15.8859 0.1648,0.7449 h 0.7582 11.2258 1.1992 z M 49.9129,57.0563 58.434,92.577 h -9.2692 l -4.2753,-19.3047 -0.9219,-4.1637 -0.9238,4.1637 -4.2825,19.3086 h -8.2961 l -4.2777,-19.302 -0.9227,-4.1637 -0.923,4.1637 -4.2773,19.2981 h -9.1618 l 8.5278,-35.5207 h 9.9968 l 4.3215,19.4937 0.9231,4.1625 0.9226,-4.1625 4.3211,-19.4937 h 9.9973"
       style="fill:#efea1c;fill-opacity:1;fill-rule:nonzero;stroke:none;stroke-width:0.1"
       id="path20" /><path
       d="m 89.1203,99.4488 8.9914,37.4032 0.1746,0.726 h 0.7446 l 20.9801,0.015 0.745,0.001 0.174,-0.727 8.984,-37.4182 0.28,-1.1675 h -1.199 -11.388 -0.744 l -0.175,0.73 -1.141,4.7517 h -12.179 l -1.141,-4.7517 -0.175,-0.73 h -0.744 -11.2689 -1.1996 z m 10.6551,36.2392 -8.5363,-35.509 h 9.3249 l 1.141,4.751 0.175,0.731 h 0.744 13.667 0.743 l 0.175,-0.731 1.141,-4.751 h 9.445 l -8.528,35.524 z m 9.6816,-9.795 -3.724,-12.563 h 7.448 z m -5.9,-13.245 4.992,16.842 0.908,3.064 0.908,-3.064 4.992,-16.842 0.361,-1.216 h -1.269 -9.984 -1.269 l 0.361,1.216"
       style="fill:#efea1c;fill-opacity:1;fill-rule:nonzero;stroke:none;stroke-width:0.1"
       id="path24" /><path
       d="m 133.786,135.702 -0.02,-35.523 h 9.377 v 10.237 c 0,1.555 0.377,2.481 1.17,2.793 0.776,0.305 1.694,-0.1 2.793,-1.2 l 9.636,-9.636 c 2.199,-2.198 2.343,-2.198 4.872,-2.198 v 0.004 h 0.107 20.633 v 9.289 H 162.14 c -1.035,0 -1.163,0.129 -1.745,0.714 l -0.021,0.021 -2.292,2.305 -0.983,0.988 1.281,0.549 -0.001,0.001 c 0.181,0.078 0.354,0.155 0.513,0.229 0.149,0.068 0.345,0.162 0.584,0.279 1.04,0.507 2.242,1.159 2.995,1.69 2.188,1.545 3.559,3.683 4.156,5.977 0.511,1.963 0.459,4.041 -0.127,5.961 -0.584,1.912 -1.7,3.667 -3.321,4.995 -1.859,1.525 -4.396,2.491 -7.572,2.495 z m -1.911,-36.4719 0.021,37.4179 0.001,0.947 0.944,-0.002 22.766,-0.03 c 3.65,-0.005 6.593,-1.138 8.773,-2.925 1.918,-1.573 3.238,-3.648 3.928,-5.908 0.688,-2.25 0.748,-4.684 0.15,-6.983 -0.705,-2.71 -2.32,-5.233 -4.897,-7.052 -0.832,-0.587 -2.093,-1.276 -3.184,-1.812 l 1.339,-1.346 0.02,-0.021 c 0.123,-0.123 0.151,-0.151 0.404,-0.151 h 21.163 0.949 v -0.949 -11.1859 -0.9488 h -0.949 -21.582 -0.107 v 0.0035 c -3.28,-4e-4 -3.467,-4e-4 -6.213,2.7462 l -9.637,9.637 c -0.515,0.515 -0.754,0.78 -0.761,0.777 -0.026,-0.01 0.037,-0.333 0.037,-1.029 V 99.2301 98.2813 h -0.949 -11.271 -0.946 z m 13.165,27.0759 v -7.478 h 7.967 c 1.886,0 3.147,1.026 3.7,2.318 0.214,0.5 0.327,1.036 0.332,1.564 0.006,0.529 -0.092,1.051 -0.298,1.525 -0.508,1.17 -1.723,2.071 -3.731,2.071 z m -1.897,-8.427 v 10.325 h 9.867 c 2.885,0 4.675,-1.401 5.465,-3.221 0.314,-0.721 0.463,-1.504 0.454,-2.288 -0.008,-0.783 -0.17,-1.567 -0.48,-2.29 -0.829,-1.937 -2.688,-3.475 -5.442,-3.475 h -8.916 -0.948 v 0.949"
       style="fill:#efea1c;fill-opacity:1;fill-rule:nonzero;stroke:none;stroke-width:0.1"
       id="path28" /><path
       d="m 157.741,68.2426 c 0.108,0 0.203,0.0039 0.284,0.0113 -0.077,0.1258 -0.187,0.2762 -0.334,0.4504 l -6.603,7.8691 c -1.574,1.8758 -2.314,4.2039 -2.314,6.5532 h 0.004 c 0,1.6382 0.358,3.2851 1.041,4.7929 0.687,1.516 1.703,2.8989 3.015,4 1.862,1.5625 4.311,2.5551 7.252,2.5551 h 23.217 0.949 V 93.5262 82.391 81.4422 h -0.949 -19.075 c -0.521,0 -0.698,0.1168 -0.724,0.0699 -0.073,-0.1289 0.206,0.0617 0.396,-0.1644 l 7.266,-8.6598 c 1.367,-1.6293 2.018,-3.75 2.018,-5.95 0,-1.6465 -0.368,-3.3469 -1.074,-4.9207 -0.706,-1.5774 -1.754,-3.0262 -3.112,-4.1664 -1.812,-1.5199 -4.167,-2.4918 -6.995,-2.4918 v 0.0035 H 131.896 V 55.159 h -0.107 v 0.0035 c -3.28,-4e-4 -3.467,-4e-4 -6.213,2.7465 l -9.637,9.6359 c -0.515,0.5156 -0.754,0.7805 -0.761,0.7774 -0.026,-0.0098 0.037,-0.3328 0.037,-1.0285 V 56.1074 55.159 h -0.949 -11.271 -0.946 l 10e-4,0.9484 0.021,37.4188 0.001,0.9461 0.944,-0.0012 22.766,-0.0309 c 3.65,-0.005 6.593,-1.1382 8.773,-2.9254 1.918,-1.5718 3.238,-3.6472 3.928,-5.9066 0.687,-2.2504 0.748,-4.6844 0.15,-6.9836 -0.705,-2.7101 -2.321,-5.2336 -4.897,-7.0519 l -0.002,-8e-4 v 0 c -0.158,-0.1117 -0.345,-0.2348 -0.554,-0.3668 -0.205,-0.1285 -0.412,-0.2535 -0.618,-0.3731 -0.643,-0.3734 -1.356,-0.7484 -2.011,-1.0703 l 1.34,-1.3472 0.02,-0.0204 c 0.123,-0.1238 0.151,-0.1515 0.404,-0.1515 z m 1.289,-1.6774 c -0.341,-0.1453 -0.773,-0.2203 -1.289,-0.2203 h -25.426 c -1.035,0 -1.164,0.1297 -1.745,0.7149 l -0.021,0.0203 -2.292,2.3051 -0.982,0.9875 1.279,0.5507 c 0.82,0.3536 2.042,0.9563 3.059,1.5465 0.205,0.1188 0.393,0.2321 0.558,0.3364 0.161,0.1011 0.32,0.2066 0.474,0.3148 l 10e-4,4e-4 v 0 c 2.188,1.5449 3.559,3.6828 4.156,5.9777 0.511,1.9625 0.459,4.0403 -0.127,5.9606 -0.584,1.9113 -1.7,3.6668 -3.321,4.9949 -1.86,1.5246 -4.396,2.491 -7.572,2.4953 l -21.821,0.0297 -0.02,-35.5234 h 9.377 v 10.2375 c 0,1.5554 0.377,2.4812 1.17,2.7929 0.776,0.3047 1.694,-0.1008 2.793,-1.2 l 9.636,-9.6359 c 2.199,-2.1985 2.343,-2.1985 4.872,-2.1981 v 0.0036 h 0.107 v -0.0036 h 30.107 v 0.0036 c 2.346,0 4.291,0.7988 5.779,2.0476 1.134,0.9516 2.009,2.1637 2.602,3.484 0.593,1.3238 0.902,2.7582 0.902,4.15 0,1.7746 -0.507,3.4641 -1.573,4.7348 l -7.266,8.6593 c -0.737,0.8774 -0.972,1.6356 -0.589,2.3141 0.338,0.5965 1.098,0.8937 2.37,0.8937 h 18.126 v 9.2372 h -22.268 c -2.461,0 -4.498,-0.82 -6.036,-2.1106 -1.088,-0.9125 -1.932,-2.0625 -2.504,-3.325 -0.576,-1.2719 -0.878,-2.6512 -0.878,-4.0148 h 0.004 c 0,-1.9246 0.598,-3.8219 1.869,-5.3375 l 6.603,-7.8692 c 0.399,-0.4754 0.661,-0.9168 0.79,-1.3179 0.138,-0.4336 0.129,-0.8329 -0.024,-1.1934 -0.161,-0.3801 -0.455,-0.6625 -0.88,-0.8434 z M 115.215,83.184 v -7.4781 h 7.966 c 1.887,0 3.148,1.025 3.701,2.3175 0.214,0.5004 0.327,1.0356 0.332,1.5641 0.006,0.5285 -0.092,1.0508 -0.298,1.5246 -0.509,1.1707 -1.723,2.0719 -3.731,2.0719 z m -1.897,-8.427 v 10.3246 h 9.867 c 2.884,0 4.675,-1.4007 5.465,-3.2211 0.313,-0.7207 0.463,-1.5039 0.454,-2.2878 -0.008,-0.7832 -0.171,-1.5676 -0.48,-2.2903 -0.829,-1.9375 -2.688,-3.4742 -5.443,-3.4742 h -8.915 -0.948 v 0.9488"
       style="fill:#efea1c;fill-opacity:1;fill-rule:nonzero;stroke:none;stroke-width:0.1"
       id="path32" /><path
       d="m 59.1434,56.3262 8.9918,37.4031 0.1746,0.7258 0.7445,4e-4 20.9805,0.0156 0.7445,4e-4 0.1746,-0.727 8.9832,-37.4183 0.2809,-1.1672 h -1.2 -11.3879 -0.7438 l -0.1758,0.7301 -1.1406,4.7519 H 73.391 L 72.25,55.8891 72.075,55.159 H 71.3309 60.0625 58.8629 Z M 69.7988,92.566 61.2625,57.0563 h 9.3246 l 1.1406,4.7519 0.1758,0.7305 h 0.7438 13.6664 0.7441 l 0.175,-0.7305 1.141,-4.7519 h 9.445 L 89.2902,92.5805 Z M 79.4805,82.7707 75.7566,70.207 h 7.4481 z m -5.9004,-13.2453 4.9922,16.8422 0.9082,3.0637 0.9082,-3.0637 4.9922,-16.8422 0.3605,-1.2156 h -1.2687 -9.9844 -1.2684 l 0.3602,1.2156"
       style="fill:#efea1c;fill-opacity:1;fill-rule:nonzero;stroke:none;stroke-width:0.1"
       id="path36" /></g></svg>
